<svg width="206" height="26" viewBox="0 0 206 26" fill="none" xmlns="http://www.w3.org/2000/svg">
<path d="M5.92214 19.8957C9.62506 19.8957 11.3443 17.1883 11.3443 13.6687V1.40427C11.3443 0.998158 11.0798 0.727421 10.683 0.727421C10.3127 0.727421 10.0218 0.998158 10.0218 1.40427V13.6687C10.0218 16.3761 8.91093 18.542 5.92214 18.542C2.93335 18.542 1.82248 16.3761 1.82248 13.6687V1.40427C1.82248 0.998158 1.55798 0.727421 1.16124 0.727421C0.790949 0.727421 0.5 0.998158 0.5 1.40427V13.6687C0.5 17.1883 2.21922 19.8957 5.92214 19.8957Z" fill="white"/>
<path d="M15.3127 19.6791C15.7095 19.6791 15.974 19.3813 15.974 19.0023V11.3945C15.974 8.9308 17.1377 7.11685 18.7776 7.11685C19.7562 7.11685 20.4439 7.63125 20.4439 8.79543V9.0391C20.4439 9.4452 20.7349 9.71594 21.1052 9.71594C21.5019 9.71594 21.7664 9.4452 21.7664 9.0391V8.79543C21.7664 6.95441 20.6555 5.9256 19.0421 5.9256C17.5874 5.9256 16.5558 6.87319 15.974 8.01029V6.81904C15.974 6.41293 15.7095 6.14219 15.3127 6.14219C14.9425 6.14219 14.6515 6.41293 14.6515 6.81904V19.0023C14.6515 19.3813 14.9425 19.6791 15.3127 19.6791Z" fill="white"/>
<path d="M28.5542 19.8957C31.3843 19.8957 32.9977 16.8364 32.9977 12.9107C32.9977 8.98495 31.3843 5.9256 28.5542 5.9256C26.9672 5.9256 25.777 6.81904 25.1951 8.3081V1.40427C25.1951 0.998158 24.9306 0.727421 24.5339 0.727421C24.1636 0.727421 23.8726 0.998158 23.8726 1.40427V19.0023C23.8726 19.3813 24.1636 19.6791 24.5339 19.6791C24.9306 19.6791 25.1951 19.3813 25.1951 19.0023V17.5132C25.777 18.9752 26.9672 19.8957 28.5542 19.8957ZM25.1951 12.9107C25.1951 9.58057 26.4118 7.27929 28.4748 7.27929C30.5115 7.27929 31.6752 9.71594 31.6752 12.9107C31.6752 16.0783 30.5115 18.542 28.4748 18.542C26.4118 18.542 25.1951 16.2137 25.1951 12.9107Z" fill="white"/>
<path d="M36.9672 19.6791C37.3639 19.6791 37.6284 19.3813 37.6284 19.0023V6.81904C37.6284 6.41293 37.3639 6.14219 36.9672 6.14219C36.5969 6.14219 36.3059 6.41293 36.3059 6.81904V19.0023C36.3059 19.3813 36.5969 19.6791 36.9672 19.6791ZM36.1737 2.48722C36.1737 2.94748 36.5176 3.29944 36.9672 3.29944C37.4433 3.29944 37.7607 2.94748 37.7607 2.48722V1.53964C37.7607 1.05231 37.4433 0.727421 36.9672 0.727421C36.5176 0.727421 36.1737 1.05231 36.1737 1.53964V2.48722Z" fill="white"/>
<path d="M44.3782 19.6791C44.7749 19.6791 45.0394 19.3813 45.0394 18.9752V7.49588H47.6844C48.0547 7.49588 48.3456 7.19807 48.3456 6.81904C48.3456 6.41293 48.0547 6.14219 47.6844 6.14219H45.0394V2.54137C45.0394 2.16234 44.7749 1.86452 44.3782 1.86452C44.0079 1.86452 43.717 2.16234 43.717 2.54137V6.14219H41.0985C40.7017 6.14219 40.4108 6.41293 40.4108 6.81904C40.4108 7.19807 40.7017 7.49588 41.0985 7.49588H43.717V18.9752C43.717 19.3813 44.0079 19.6791 44.3782 19.6791Z" fill="white"/>
<path d="M70.4714 19.8957L72.032 18.3254C72.3493 18.0818 72.3758 17.7027 72.1377 17.3778C71.8732 17.08 71.503 17.053 71.1856 17.2966L70.4185 18.1901C70.1805 18.1088 70.0482 17.8922 70.0482 17.5944V4.65313L72.27 1.81038C72.508 1.48549 72.4551 1.10645 72.1642 0.86279C71.8468 0.592052 71.4765 0.6462 71.2385 0.971085L69.2812 3.40773C66.9801 1.64793 64.3881 0.510831 61.2935 0.510831C58.0137 0.510831 54.6547 2.73089 54.6547 6.71074C54.6547 9.30983 55.9771 11.6111 57.7228 13.2085L54.8133 17.2154C54.2843 17.9464 54.0992 18.5691 54.0992 19.2459C54.0992 20.004 54.3108 20.5726 54.6018 21.1682C54.7076 21.3577 54.9191 21.5201 55.1836 21.5201C55.7126 21.5201 55.9771 20.9245 55.7655 20.5184C55.501 20.0582 55.4217 19.7333 55.4217 19.2459C55.4217 18.1088 56.3474 17.4861 57.5641 17.4861C59.0453 17.4861 60.6058 18.2984 62.8275 19.7333C63.0656 19.8686 63.3301 19.8957 63.5417 19.7874L68.7258 17.1342V17.8652C68.7258 19.0564 69.4663 19.625 70.4714 19.8957ZM55.9771 6.71074C55.9771 3.51603 58.5692 1.86452 61.2935 1.86452C62.8011 1.86452 64.1765 2.16234 65.4196 2.67674L63.9119 4.73435C62.7746 4.19287 61.4522 4.24702 60.738 4.54484C60.5 4.62606 60.3148 4.86972 60.3148 5.16753C60.3148 5.68194 60.7909 5.9256 61.2141 5.79023C61.6373 5.62779 62.4043 5.57364 63.1185 5.84438L58.5163 12.1255C57.0086 10.7447 55.9771 8.84958 55.9771 6.71074ZM57.1673 16.2949L59.68 12.8294H68.7258V15.618L63.2507 18.4067C61.0819 17.0259 59.2568 16.2407 57.6699 16.2407C57.5112 16.2407 57.326 16.2678 57.1673 16.2949ZM60.6851 11.4757L66.6362 3.27236C67.3768 3.6514 68.0645 4.13873 68.7258 4.65313V11.4757H60.6851Z" fill="white"/>
<path d="M78.7606 19.6791C79.1045 19.9228 79.4748 19.8957 79.7657 19.625C80.4534 19.0023 81.2734 18.3525 81.9875 18.0005C82.2255 17.8652 82.3842 17.6215 82.3842 17.3237V13.1002C82.3842 12.7753 82.199 12.5045 81.9081 12.3963L79.5276 11.584L82.2255 7.171C82.5164 6.68367 82.5958 6.30464 82.5958 5.87145C82.5958 5.4112 82.4636 5.00509 82.1462 4.62606C82.0139 4.46361 81.8288 4.35532 81.5907 4.35532C81.2469 4.35532 80.9559 4.65313 80.9559 5.03216C80.9559 5.16753 81.0089 5.3029 81.0882 5.43827C81.2204 5.60071 81.2998 5.73608 81.2998 5.95268C81.2998 6.41293 81.0089 6.76489 80.0831 6.76489C79.1574 6.76489 78.3639 6.41293 77.6233 5.97975C77.3059 5.81731 76.9885 5.84438 76.724 6.08804C76.0628 6.71074 75.2164 7.27929 74.4494 7.65833C74.1849 7.7937 74.0262 8.03736 74.0262 8.3081V12.5587C74.0262 12.9107 74.2642 13.2085 74.5816 13.3168L76.5918 13.8312L73.5237 18.8669C73.2063 19.3542 73.7352 19.9499 74.2907 19.7333C75.4809 19.1376 76.1422 18.9211 76.8034 18.9211C77.4382 18.9211 78.073 19.1647 78.7606 19.6791ZM75.3486 12.1255V8.68713C76.0099 8.38932 76.724 7.84785 77.2795 7.38759C77.9936 7.73955 78.8664 8.06444 79.6864 8.06444C79.8451 8.06444 80.0038 8.06444 80.136 8.03736L77.3324 12.6399L75.3486 12.1255ZM75.7983 17.7569L78.8135 12.7482L81.0618 13.5063V16.9447C80.4005 17.2695 79.6864 17.8381 79.1574 18.3254C78.3904 17.8381 77.5969 17.5674 76.8034 17.5674C76.486 17.5674 76.1421 17.6215 75.7983 17.7569Z" fill="white"/>
<path d="M89.2733 19.6791C89.6171 19.9228 89.9874 19.8957 90.2783 19.625C90.966 19.0023 91.786 18.3525 92.5001 18.0005C92.7382 17.8652 92.8968 17.6215 92.8968 17.3237V13.1002C92.8968 12.7753 92.7117 12.5045 92.4207 12.3963L90.0403 11.584L92.7381 7.171C93.0291 6.68367 93.1084 6.30464 93.1084 5.87145C93.1084 5.4112 92.9762 5.00509 92.6588 4.62606C92.5265 4.46361 92.3414 4.35532 92.1034 4.35532C91.7595 4.35532 91.4685 4.65313 91.4685 5.03216C91.4685 5.16753 91.5215 5.3029 91.6008 5.43827C91.7331 5.60071 91.8124 5.73608 91.8124 5.95268C91.8124 6.41293 91.5215 6.76489 90.5957 6.76489C89.67 6.76489 88.8765 6.41293 88.1359 5.97975C87.8185 5.81731 87.5011 5.84438 87.2366 6.08804C86.5754 6.71074 85.729 7.27929 84.962 7.65833C84.6975 7.7937 84.5388 8.03736 84.5388 8.3081V12.5587C84.5388 12.9107 84.7769 13.2085 85.0942 13.3168L87.1044 13.8312L84.0363 18.8669C83.7189 19.3542 84.2478 19.9499 84.8033 19.7333C85.9935 19.1376 86.6548 18.9211 87.316 18.9211C87.9508 18.9211 88.5856 19.1647 89.2733 19.6791ZM85.8613 12.1255V8.68713C86.5225 8.38932 87.2367 7.84785 87.7921 7.38759C88.5062 7.73955 89.3791 8.06444 90.199 8.06444C90.3577 8.06444 90.5164 8.06444 90.6486 8.03736L87.845 12.6399L85.8613 12.1255ZM86.3109 17.7569L89.3262 12.7482L91.5744 13.5063V16.9447C90.9131 17.2695 90.199 17.8381 89.67 18.3254C88.903 17.8381 88.1095 17.5674 87.316 17.5674C86.9986 17.5674 86.6547 17.6215 86.3109 17.7569Z" fill="white"/>
<path d="M95.554 18.1359L99.8123 19.7062C100.024 19.7874 100.262 19.7874 100.447 19.625L102.325 18.2984C102.642 18.0547 102.722 17.6486 102.51 17.3237C102.272 16.9988 101.875 16.9447 101.584 17.1613L99.971 18.3254L96.4268 17.0259C96.6913 16.4032 96.7706 15.8888 96.7706 15.2119V14.3726L102.59 11.2592C103.039 11.0426 103.198 10.5282 102.933 10.0679L100.791 6.49415C100.579 6.11512 100.156 5.97975 99.7859 6.19634C98.5957 6.79197 97.5377 7.14393 96.083 7.44174C95.6862 7.49589 95.4482 7.82077 95.4482 8.19981V15.2119C95.4482 15.8346 95.3953 16.2407 95.1308 16.8093C94.8398 17.3508 94.9721 17.9193 95.554 18.1359ZM96.7706 12.8836V8.66006C97.9344 8.4164 98.9131 8.09151 99.8652 7.60418L101.558 10.2574L96.7706 12.8836Z" fill="white"/>
<path d="M119.549 19.8957L121.11 18.3254C121.427 18.0818 121.454 17.7027 121.216 17.3778C120.951 17.08 120.581 17.053 120.263 17.2966L119.496 18.1901C119.258 18.0547 119.126 17.784 119.126 17.4049V9.20154C119.126 8.28103 119.391 7.63125 119.84 7.08978C120.052 6.76489 119.999 6.35878 119.681 6.14219C119.364 5.89853 118.994 5.97975 118.756 6.33171C118.28 6.92733 117.909 7.6854 117.83 8.74128L115.37 6.41293C114.973 6.0339 114.55 6.06097 114.206 6.46708L112.09 9.12032L109.234 6.41293C108.864 6.0339 108.44 6.06097 108.07 6.46708L106.88 7.98322V7.82077C106.88 6.6566 106.324 6.25049 105.452 6.0339L104.05 7.19807C103.732 7.41466 103.653 7.7937 103.865 8.11858C104.076 8.47054 104.447 8.52469 104.764 8.3081L105.161 7.7937C105.425 7.87492 105.557 8.11858 105.557 8.47054V18.9752C105.557 19.3813 105.822 19.6791 106.219 19.6791C106.589 19.6791 106.88 19.3813 106.88 18.9752V10.122L108.573 7.7937L111.667 10.5552V18.9752C111.667 19.3813 111.958 19.6791 112.329 19.6791C112.725 19.6791 112.99 19.3813 112.99 18.9752V10.1762L114.683 7.7937L117.804 10.5552V17.8652C117.804 19.0564 118.544 19.625 119.549 19.8957Z" fill="white"/>
<path d="M123.246 18.5691L126.499 19.625C127.081 19.8145 127.557 19.5438 127.795 19.0023C128.245 18.0276 129.118 16.9988 130.123 16.5386C130.599 16.322 130.837 15.8888 130.837 15.4015V10.4199C130.837 8.38932 130.281 7.65833 129.25 6.87319L128.588 6.35878C128.324 6.16927 128.033 6.08804 127.769 6.08804C127.478 6.08804 127.213 6.19634 126.922 6.46708L124.383 8.71421V8.33518C124.383 6.35878 123.352 5.57364 123.352 4.13873C123.352 3.27236 123.801 2.62259 125.044 1.81038C125.388 1.62086 125.467 1.21475 125.282 0.86279C125.071 0.537905 124.674 0.456683 124.357 0.673274C122.849 1.64793 122.029 2.78503 122.029 4.13873C122.029 6.33171 123.087 6.95441 123.087 8.95787V15.5368C123.087 16.1866 123.034 16.5656 122.743 17.1342C122.479 17.6486 122.584 18.3254 123.246 18.5691ZM124.066 17.432C124.33 16.8093 124.409 16.2407 124.409 15.5368V10.4469L127.795 7.46881L128.509 7.98322C129.276 8.52469 129.514 8.84958 129.514 10.4199V15.3202C128.271 15.9159 127.24 17.1342 126.684 18.2442L124.066 17.432Z" fill="white"/>
<path d="M133.44 18.8128L135.107 19.625C135.451 19.8145 135.794 19.7062 136.085 19.4896L137.884 17.6215C138.175 17.3778 138.228 16.9717 137.99 16.6739C137.752 16.349 137.381 16.322 137.064 16.5656L135.424 18.2984L134.498 17.8381C134.842 17.1613 134.948 16.5656 134.948 15.7263V8.98495C134.948 6.6566 133.89 5.97975 133.89 4.1658C133.89 3.29944 134.34 2.67674 135.583 1.86452C135.927 1.64793 136.006 1.24182 135.821 0.916939C135.609 0.592052 135.212 0.510831 134.895 0.700347C133.387 1.67501 132.567 2.81211 132.567 4.1658C132.567 6.38586 133.625 7.00856 133.625 8.98495V15.7263C133.625 16.4573 133.546 16.8093 133.097 17.7298C132.858 18.2442 132.964 18.5962 133.44 18.8128Z" fill="white"/>
<path d="M141.966 25.5C143.949 25.5 145.431 24.2275 145.563 22.6572C145.616 22.197 145.325 21.8721 144.928 21.8721C144.584 21.8721 144.32 22.1158 144.267 22.4677C144.161 23.3882 143.42 24.1463 141.966 24.1463C140.405 24.1463 139.612 23.4695 139.612 22.4948C139.612 19.9499 147.785 18.1359 147.785 11.1238C147.785 9.30983 146.832 7.36052 145.457 6.19634C145.219 5.95267 144.849 5.97975 144.584 6.19634L140.934 9.0391V7.52296C140.934 7.33344 140.855 7.171 140.67 7.03563L139.718 6.27756C139.559 6.19634 139.453 6.14219 139.321 6.14219C138.95 6.14219 138.66 6.46708 138.66 6.81904C138.66 7.0627 138.765 7.25222 138.951 7.38759L139.612 7.92907V19.9769C138.818 20.735 138.289 21.5472 138.289 22.4948C138.289 24.3358 139.85 25.5 141.966 25.5ZM140.934 18.8669V10.7177L144.981 7.57711C145.88 8.49762 146.462 9.82424 146.462 11.1238C146.462 15.0224 143.315 17.0259 140.934 18.8669Z" fill="white"/>
<path d="M154.721 19.7062C156.44 19.2189 158.053 19.0835 159.826 19.0835C161.809 19.0835 163.343 19.3542 164.824 19.7062C165.248 19.8145 165.671 19.5167 165.671 19.0564C165.671 18.7315 165.459 18.4879 165.168 18.4067C163.634 18.0005 161.915 17.7298 159.826 17.7298C158.45 17.7298 157.101 17.811 155.779 18.1359C157.921 13.2085 165.142 11.0967 165.301 4.84265C165.301 4.59898 165.221 4.43654 165.036 4.2741L160.46 0.835716C160.196 0.619125 159.826 0.619124 159.561 0.808642L154.694 4.57191C154.536 4.70728 154.456 4.8968 154.456 5.11339C154.456 5.49242 154.747 5.79023 155.118 5.79023C155.25 5.79023 155.382 5.73608 155.514 5.65486L160.011 2.16234L163.952 5.11339C163.555 10.6365 155.779 12.1255 154.007 19.0293C153.901 19.5167 154.271 19.8416 154.721 19.7062Z" fill="white"/>
<path d="M174.474 19.7062C177.727 17.3508 179.235 14.0478 179.156 10.3928C179.076 5.76316 176.246 2.13526 173.072 0.564977C172.861 0.456682 172.596 0.483756 172.385 0.6462C169.158 3.00162 167.65 6.27756 167.73 9.95961C167.809 14.5622 170.639 18.1901 173.786 19.7874C174.025 19.8957 174.263 19.8686 174.474 19.7062ZM169.052 9.93253C168.973 6.71074 170.136 4.0575 172.861 1.97282C175.559 3.43481 177.754 6.41293 177.833 10.4199C177.886 13.6417 176.749 16.2678 174.025 18.3525C171.3 16.9176 169.105 13.9395 169.052 9.93253Z" fill="white"/>
<path d="M181.144 19.7062C182.864 19.2189 184.477 19.0835 186.249 19.0835C188.233 19.0835 189.767 19.3542 191.248 19.7062C191.671 19.8145 192.094 19.5167 192.094 19.0564C192.094 18.7315 191.883 18.4879 191.592 18.4067C190.058 18.0005 188.339 17.7298 186.249 17.7298C184.874 17.7298 183.525 17.811 182.202 18.1359C184.345 13.2085 191.565 11.0967 191.724 4.84265C191.724 4.59898 191.645 4.43654 191.46 4.2741L186.884 0.835716C186.619 0.619125 186.249 0.619124 185.985 0.808642L181.118 4.57191C180.959 4.70728 180.88 4.8968 180.88 5.11339C180.88 5.49242 181.171 5.79023 181.541 5.79023C181.673 5.79023 181.806 5.73608 181.938 5.65486L186.434 2.16234L190.375 5.11339C189.979 10.6365 182.202 12.1255 180.43 19.0293C180.324 19.5167 180.695 19.8416 181.144 19.7062Z" fill="white"/>
<path d="M194.55 19.7062C196.269 19.2189 197.883 19.0835 199.655 19.0835C201.638 19.0835 203.172 19.3542 204.654 19.7062C205.077 19.8145 205.5 19.5167 205.5 19.0564C205.5 18.7315 205.288 18.4879 204.997 18.4067C203.463 18.0005 201.744 17.7298 199.655 17.7298C198.279 17.7298 196.93 17.811 195.608 18.1359C197.75 13.2085 204.971 11.0967 205.13 4.84265C205.13 4.59898 205.05 4.43654 204.865 4.2741L200.289 0.835716C200.025 0.619125 199.655 0.619124 199.39 0.808642L194.523 4.57191C194.365 4.70728 194.285 4.8968 194.285 5.11339C194.285 5.49242 194.576 5.79023 194.947 5.79023C195.079 5.79023 195.211 5.73608 195.343 5.65486L199.84 2.16234L203.781 5.11339C203.384 10.6365 195.608 12.1255 193.836 19.0293C193.73 19.5167 194.1 19.8416 194.55 19.7062Z" fill="white"/>
</svg>
